<mxfile host="app.diagrams.net" modified="2023-05-09T18:15:34.495Z" agent="Mozilla/5.0 (Macintosh; Intel Mac OS X 10_15_7) AppleWebKit/605.1.15 (KHTML, like Gecko) Version/16.1 Safari/605.1.15" etag="ncaxPPx3uNvZPJbdWFH4" version="21.2.9" type="device">
  <diagram name="Page-1" id="aIBTuQkiA0be8Nsj7J4z">
    <mxGraphModel dx="953" dy="554" grid="1" gridSize="10" guides="1" tooltips="1" connect="1" arrows="1" fold="1" page="1" pageScale="1" pageWidth="850" pageHeight="1100" math="0" shadow="0">
      <root>
        <mxCell id="0" />
        <mxCell id="1" parent="0" />
        <mxCell id="h0uYX_ybq1tScz9PB0_B-2" value="" style="endArrow=open;startArrow=open;html=1;rounded=0;strokeWidth=4;endFill=0;startFill=0;targetPerimeterSpacing=6;sourcePerimeterSpacing=6;dashed=1;" parent="1" edge="1">
          <mxGeometry width="50" height="50" relative="1" as="geometry">
            <mxPoint x="830" y="860" as="sourcePoint" />
            <mxPoint x="80" y="20" as="targetPoint" />
            <Array as="points">
              <mxPoint x="80" y="860" />
            </Array>
          </mxGeometry>
        </mxCell>
        <mxCell id="h0uYX_ybq1tScz9PB0_B-4" value="" style="endArrow=open;html=1;rounded=0;strokeWidth=4;endFill=0;dashed=1;" parent="1" edge="1">
          <mxGeometry width="50" height="50" relative="1" as="geometry">
            <mxPoint x="80" y="619" as="sourcePoint" />
            <mxPoint x="820" y="619" as="targetPoint" />
          </mxGeometry>
        </mxCell>
        <mxCell id="h0uYX_ybq1tScz9PB0_B-5" value="" style="endArrow=open;html=1;rounded=0;strokeWidth=4;endFill=0;dashed=1;" parent="1" edge="1">
          <mxGeometry width="50" height="50" relative="1" as="geometry">
            <mxPoint x="80" y="360" as="sourcePoint" />
            <mxPoint x="840" y="360" as="targetPoint" />
          </mxGeometry>
        </mxCell>
        <mxCell id="h0uYX_ybq1tScz9PB0_B-8" value="Reporting week" style="text;html=1;align=center;verticalAlign=middle;resizable=0;points=[];autosize=1;strokeColor=none;fillColor=none;strokeWidth=1;fontSize=23;" parent="1" vertex="1">
          <mxGeometry x="570" y="950" width="180" height="40" as="geometry" />
        </mxCell>
        <mxCell id="h0uYX_ybq1tScz9PB0_B-7" value="" style="endArrow=classic;html=1;strokeWidth=5;curved=1;" parent="1" edge="1">
          <mxGeometry width="50" height="50" relative="1" as="geometry">
            <mxPoint x="90" y="350" as="sourcePoint" />
            <mxPoint x="810" y="350" as="targetPoint" />
            <Array as="points">
              <mxPoint x="230" y="350" />
              <mxPoint x="330" y="250" />
              <mxPoint x="390" y="110" />
              <mxPoint x="470" y="50" />
              <mxPoint x="560" y="160" />
              <mxPoint x="610" y="250" />
              <mxPoint x="670" y="330" />
              <mxPoint x="740" y="350" />
            </Array>
          </mxGeometry>
        </mxCell>
        <mxCell id="h0uYX_ybq1tScz9PB0_B-9" value="&amp;nbsp; &amp;nbsp; &amp;nbsp; &amp;nbsp;1&lt;span style=&quot;white-space: pre;&quot;&gt; &lt;span style=&quot;white-space: pre;&quot;&gt; &lt;/span&gt;5&lt;span style=&quot;white-space: pre;&quot;&gt; &lt;/span&gt;&lt;span style=&quot;white-space: pre;&quot;&gt; 9&lt;span style=&quot;white-space: pre;&quot;&gt; &lt;/span&gt;&lt;span style=&quot;white-space: pre;&quot;&gt; 13&lt;span style=&quot;white-space: pre;&quot;&gt; &lt;/span&gt;&lt;span style=&quot;white-space: pre;&quot;&gt; 17&lt;span style=&quot;white-space: pre;&quot;&gt; &lt;/span&gt;&lt;span style=&quot;white-space: pre;&quot;&gt; 21&lt;span style=&quot;white-space: pre;&quot;&gt; &lt;/span&gt;&lt;span style=&quot;white-space: pre;&quot;&gt; 25&lt;span style=&quot;white-space: pre;&quot;&gt; &lt;/span&gt;&lt;span style=&quot;white-space: pre;&quot;&gt; 29&lt;span style=&quot;white-space: pre;&quot;&gt; &lt;/span&gt;&lt;/span&gt;&lt;span style=&quot;white-space: pre;&quot;&gt; 33&lt;span style=&quot;white-space: pre;&quot;&gt; &lt;/span&gt;&lt;span style=&quot;white-space: pre;&quot;&gt; 37&lt;span style=&quot;white-space: pre;&quot;&gt; &lt;/span&gt;&lt;span style=&quot;white-space: pre;&quot;&gt; 41&lt;span style=&quot;white-space: pre;&quot;&gt; &lt;/span&gt;&lt;span style=&quot;white-space: pre;&quot;&gt; 45&lt;span style=&quot;white-space: pre;&quot;&gt; &lt;/span&gt;&lt;span style=&quot;white-space: pre;&quot;&gt; 49&lt;span style=&quot;white-space: pre;&quot;&gt; &lt;/span&gt;&lt;span style=&quot;white-space: pre;&quot;&gt; 53&lt;/span&gt;&lt;/span&gt;&lt;/span&gt;&lt;/span&gt;&lt;/span&gt;&lt;/span&gt;&lt;/span&gt;&lt;/span&gt;&lt;/span&gt;&lt;/span&gt;&lt;/span&gt;&lt;/span&gt;" style="text;html=1;align=center;verticalAlign=middle;resizable=0;points=[];autosize=1;strokeColor=none;fillColor=none;strokeWidth=1;fontSize=23;" parent="1" vertex="1">
          <mxGeometry x="29" y="920" width="770" height="40" as="geometry" />
        </mxCell>
        <mxCell id="h0uYX_ybq1tScz9PB0_B-10" value="" style="endArrow=classic;html=1;strokeWidth=5;curved=1;" parent="1" edge="1">
          <mxGeometry width="50" height="50" relative="1" as="geometry">
            <mxPoint x="90" y="890" as="sourcePoint" />
            <mxPoint x="800" y="820" as="targetPoint" />
            <Array as="points">
              <mxPoint x="120" y="890" />
              <mxPoint x="140" y="820" />
              <mxPoint x="170" y="900" />
              <mxPoint x="180" y="850" />
              <mxPoint x="230" y="640" />
              <mxPoint x="280" y="910" />
              <mxPoint x="350" y="820" />
              <mxPoint x="420" y="890" />
              <mxPoint x="470" y="880" />
              <mxPoint x="520" y="820" />
              <mxPoint x="550" y="910" />
              <mxPoint x="600" y="830" />
              <mxPoint x="680" y="890" />
              <mxPoint x="780" y="840" />
            </Array>
          </mxGeometry>
        </mxCell>
        <mxCell id="h0uYX_ybq1tScz9PB0_B-11" value="" style="endArrow=classic;html=1;strokeWidth=5;curved=1;" parent="1" edge="1">
          <mxGeometry width="50" height="50" relative="1" as="geometry">
            <mxPoint x="90" y="655" as="sourcePoint" />
            <mxPoint x="820" y="580" as="targetPoint" />
            <Array as="points">
              <mxPoint x="180" y="630" />
              <mxPoint x="230" y="570" />
              <mxPoint x="331" y="390" />
              <mxPoint x="372" y="465" />
              <mxPoint x="450" y="630" />
              <mxPoint x="561" y="660" />
              <mxPoint x="641" y="655" />
              <mxPoint x="801" y="588" />
            </Array>
          </mxGeometry>
        </mxCell>
        <mxCell id="h0uYX_ybq1tScz9PB0_B-14" value="" style="endArrow=none;html=1;rounded=0;strokeWidth=10;" parent="1" edge="1">
          <mxGeometry width="50" height="50" relative="1" as="geometry">
            <mxPoint x="80" y="680" as="sourcePoint" />
            <mxPoint x="840" y="680" as="targetPoint" />
          </mxGeometry>
        </mxCell>
        <mxCell id="h0uYX_ybq1tScz9PB0_B-15" value="" style="endArrow=none;html=1;rounded=0;strokeWidth=10;" parent="1" edge="1">
          <mxGeometry width="50" height="50" relative="1" as="geometry">
            <mxPoint x="80" y="918.33" as="sourcePoint" />
            <mxPoint x="840" y="918.33" as="targetPoint" />
          </mxGeometry>
        </mxCell>
        <mxCell id="h0uYX_ybq1tScz9PB0_B-16" value="" style="endArrow=none;html=1;rounded=0;strokeWidth=10;" parent="1" edge="1">
          <mxGeometry width="50" height="50" relative="1" as="geometry">
            <mxPoint x="80" y="384" as="sourcePoint" />
            <mxPoint x="840" y="384" as="targetPoint" />
          </mxGeometry>
        </mxCell>
        <mxCell id="h0uYX_ybq1tScz9PB0_B-18" value="&lt;font style=&quot;font-size: 23px;&quot;&gt;0&lt;/font&gt;" style="text;html=1;align=center;verticalAlign=middle;resizable=0;points=[];autosize=1;strokeColor=none;fillColor=none;" parent="1" vertex="1">
          <mxGeometry x="46" y="598" width="40" height="40" as="geometry" />
        </mxCell>
        <mxCell id="h0uYX_ybq1tScz9PB0_B-19" value="&lt;font style=&quot;font-size: 23px;&quot;&gt;0&lt;/font&gt;" style="text;html=1;align=center;verticalAlign=middle;resizable=0;points=[];autosize=1;strokeColor=none;fillColor=none;" parent="1" vertex="1">
          <mxGeometry x="46" y="838" width="40" height="40" as="geometry" />
        </mxCell>
        <mxCell id="h0uYX_ybq1tScz9PB0_B-20" value="&lt;font style=&quot;font-size: 23px;&quot;&gt;0&lt;/font&gt;" style="text;html=1;align=center;verticalAlign=middle;resizable=0;points=[];autosize=1;strokeColor=none;fillColor=none;" parent="1" vertex="1">
          <mxGeometry x="47" y="339" width="40" height="40" as="geometry" />
        </mxCell>
        <mxCell id="h0uYX_ybq1tScz9PB0_B-21" value="&lt;font style=&quot;font-size: 26px;&quot;&gt;Observed/fitted RSV cases&amp;nbsp;&lt;/font&gt;" style="text;html=1;align=center;verticalAlign=middle;resizable=0;points=[];autosize=1;strokeColor=none;fillColor=none;rotation=-90;" parent="1" vertex="1">
          <mxGeometry x="-140" y="177" width="340" height="40" as="geometry" />
        </mxCell>
        <mxCell id="h0uYX_ybq1tScz9PB0_B-22" value="&lt;font style=&quot;font-size: 26px;&quot;&gt;dy/dt, y=(log F(t))&lt;/font&gt;" style="text;html=1;align=center;verticalAlign=middle;resizable=0;points=[];autosize=1;strokeColor=none;fillColor=none;rotation=-90;" parent="1" vertex="1">
          <mxGeometry x="-83" y="480" width="220" height="40" as="geometry" />
        </mxCell>
        <mxCell id="h0uYX_ybq1tScz9PB0_B-23" value="&lt;font style=&quot;font-size: 26px;&quot;&gt;dy&lt;sup&gt;2&lt;/sup&gt;/dt&lt;sup&gt;2&lt;/sup&gt;,&lt;sup&gt;&amp;nbsp;&lt;/sup&gt;y=(F(t))&lt;/font&gt;" style="text;html=1;align=center;verticalAlign=middle;resizable=0;points=[];autosize=1;strokeColor=none;fillColor=none;rotation=-90;" parent="1" vertex="1">
          <mxGeometry x="-70" y="745" width="200" height="50" as="geometry" />
        </mxCell>
        <mxCell id="h0uYX_ybq1tScz9PB0_B-39" value="" style="endArrow=open;html=1;rounded=0;strokeWidth=2;endFill=0;fillColor=#0050ef;strokeColor=#001DBC;" parent="1" edge="1">
          <mxGeometry width="50" height="50" relative="1" as="geometry">
            <mxPoint x="227" y="1000" as="sourcePoint" />
            <mxPoint x="227" y="330" as="targetPoint" />
          </mxGeometry>
        </mxCell>
        <mxCell id="h0uYX_ybq1tScz9PB0_B-41" value="&lt;font style=&quot;font-size: 20px;&quot; color=&quot;#ff0000&quot;&gt;Growth&lt;br&gt;rate&lt;/font&gt;" style="text;html=1;align=center;verticalAlign=middle;resizable=0;points=[];autosize=1;strokeColor=none;fillColor=none;" parent="1" vertex="1">
          <mxGeometry x="369" y="440" width="90" height="60" as="geometry" />
        </mxCell>
        <mxCell id="h0uYX_ybq1tScz9PB0_B-42" value="&lt;font style=&quot;font-size: 20px;&quot; color=&quot;#000099&quot;&gt;Onset&lt;/font&gt;" style="text;html=1;align=center;verticalAlign=middle;resizable=0;points=[];autosize=1;strokeColor=none;fillColor=none;" parent="1" vertex="1">
          <mxGeometry x="168" y="298" width="80" height="40" as="geometry" />
        </mxCell>
        <mxCell id="h0uYX_ybq1tScz9PB0_B-47" value="&lt;font style=&quot;font-size: 20px;&quot; color=&quot;#006600&quot;&gt;Peak&lt;/font&gt;" style="text;html=1;align=center;verticalAlign=middle;resizable=0;points=[];autosize=1;strokeColor=none;fillColor=none;" parent="1" vertex="1">
          <mxGeometry x="455" y="100" width="70" height="40" as="geometry" />
        </mxCell>
        <mxCell id="h0uYX_ybq1tScz9PB0_B-49" value="" style="endArrow=none;dashed=1;html=1;rounded=0;fillColor=#e3c800;strokeColor=#B09500;strokeWidth=2;" parent="1" edge="1">
          <mxGeometry width="50" height="50" relative="1" as="geometry">
            <mxPoint x="290" y="470" as="sourcePoint" />
            <mxPoint x="340" y="420" as="targetPoint" />
          </mxGeometry>
        </mxCell>
        <mxCell id="h0uYX_ybq1tScz9PB0_B-50" value="" style="endArrow=none;dashed=1;html=1;rounded=0;fillColor=#e3c800;strokeColor=#B09500;strokeWidth=2;" parent="1" edge="1">
          <mxGeometry width="50" height="50" relative="1" as="geometry">
            <mxPoint x="260" y="520" as="sourcePoint" />
            <mxPoint x="350" y="430" as="targetPoint" />
          </mxGeometry>
        </mxCell>
        <mxCell id="h0uYX_ybq1tScz9PB0_B-51" value="" style="endArrow=none;dashed=1;html=1;rounded=0;fillColor=#e3c800;strokeColor=#B09500;strokeWidth=2;" parent="1" edge="1">
          <mxGeometry width="50" height="50" relative="1" as="geometry">
            <mxPoint x="230" y="570" as="sourcePoint" />
            <mxPoint x="360" y="440" as="targetPoint" />
          </mxGeometry>
        </mxCell>
        <mxCell id="h0uYX_ybq1tScz9PB0_B-52" value="" style="endArrow=none;dashed=1;html=1;rounded=0;fillColor=#e3c800;strokeColor=#B09500;strokeWidth=2;" parent="1" edge="1">
          <mxGeometry width="50" height="50" relative="1" as="geometry">
            <mxPoint x="210" y="620" as="sourcePoint" />
            <mxPoint x="370" y="460" as="targetPoint" />
          </mxGeometry>
        </mxCell>
        <mxCell id="h0uYX_ybq1tScz9PB0_B-53" value="" style="endArrow=none;dashed=1;html=1;rounded=0;fillColor=#e3c800;strokeColor=#B09500;strokeWidth=2;" parent="1" edge="1">
          <mxGeometry width="50" height="50" relative="1" as="geometry">
            <mxPoint x="240" y="620" as="sourcePoint" />
            <mxPoint x="380" y="480" as="targetPoint" />
          </mxGeometry>
        </mxCell>
        <mxCell id="h0uYX_ybq1tScz9PB0_B-54" value="" style="endArrow=none;dashed=1;html=1;rounded=0;fillColor=#e3c800;strokeColor=#B09500;strokeWidth=2;" parent="1" edge="1">
          <mxGeometry width="50" height="50" relative="1" as="geometry">
            <mxPoint x="280" y="610" as="sourcePoint" />
            <mxPoint x="390" y="500" as="targetPoint" />
          </mxGeometry>
        </mxCell>
        <mxCell id="h0uYX_ybq1tScz9PB0_B-55" value="" style="endArrow=none;dashed=1;html=1;rounded=0;fillColor=#e3c800;strokeColor=#B09500;strokeWidth=2;" parent="1" edge="1">
          <mxGeometry width="50" height="50" relative="1" as="geometry">
            <mxPoint x="290" y="620" as="sourcePoint" />
            <mxPoint x="400" y="510" as="targetPoint" />
          </mxGeometry>
        </mxCell>
        <mxCell id="h0uYX_ybq1tScz9PB0_B-56" value="" style="endArrow=none;dashed=1;html=1;rounded=0;fillColor=#e3c800;strokeColor=#B09500;strokeWidth=2;" parent="1" edge="1">
          <mxGeometry width="50" height="50" relative="1" as="geometry">
            <mxPoint x="310" y="620" as="sourcePoint" />
            <mxPoint x="400" y="530" as="targetPoint" />
          </mxGeometry>
        </mxCell>
        <mxCell id="h0uYX_ybq1tScz9PB0_B-57" value="" style="endArrow=none;dashed=1;html=1;rounded=0;fillColor=#e3c800;strokeColor=#B09500;strokeWidth=2;" parent="1" edge="1">
          <mxGeometry width="50" height="50" relative="1" as="geometry">
            <mxPoint x="330" y="620" as="sourcePoint" />
            <mxPoint x="410" y="543" as="targetPoint" />
          </mxGeometry>
        </mxCell>
        <mxCell id="h0uYX_ybq1tScz9PB0_B-58" value="" style="endArrow=none;dashed=1;html=1;rounded=0;fillColor=#e3c800;strokeColor=#B09500;strokeWidth=2;" parent="1" edge="1">
          <mxGeometry width="50" height="50" relative="1" as="geometry">
            <mxPoint x="360" y="610" as="sourcePoint" />
            <mxPoint x="415" y="555" as="targetPoint" />
          </mxGeometry>
        </mxCell>
        <mxCell id="h0uYX_ybq1tScz9PB0_B-59" value="" style="endArrow=none;dashed=1;html=1;rounded=0;fillColor=#e3c800;strokeColor=#B09500;strokeWidth=2;" parent="1" edge="1">
          <mxGeometry width="50" height="50" relative="1" as="geometry">
            <mxPoint x="379" y="619" as="sourcePoint" />
            <mxPoint x="424" y="568" as="targetPoint" />
          </mxGeometry>
        </mxCell>
        <mxCell id="h0uYX_ybq1tScz9PB0_B-60" value="" style="endArrow=none;dashed=1;html=1;rounded=0;fillColor=#e3c800;strokeColor=#B09500;strokeWidth=2;" parent="1" edge="1">
          <mxGeometry width="50" height="50" relative="1" as="geometry">
            <mxPoint x="390" y="620" as="sourcePoint" />
            <mxPoint x="426" y="581" as="targetPoint" />
          </mxGeometry>
        </mxCell>
        <mxCell id="h0uYX_ybq1tScz9PB0_B-61" value="" style="endArrow=none;dashed=1;html=1;rounded=0;fillColor=#e3c800;strokeColor=#B09500;strokeWidth=2;" parent="1" edge="1">
          <mxGeometry width="50" height="50" relative="1" as="geometry">
            <mxPoint x="420" y="616" as="sourcePoint" />
            <mxPoint x="436" y="599" as="targetPoint" />
          </mxGeometry>
        </mxCell>
        <mxCell id="h0uYX_ybq1tScz9PB0_B-62" value="" style="endArrow=none;dashed=1;html=1;rounded=0;fillColor=#e3c800;strokeColor=#B09500;strokeWidth=2;" parent="1" edge="1">
          <mxGeometry width="50" height="50" relative="1" as="geometry">
            <mxPoint x="427" y="619" as="sourcePoint" />
            <mxPoint x="443" y="602" as="targetPoint" />
          </mxGeometry>
        </mxCell>
        <mxCell id="h0uYX_ybq1tScz9PB0_B-63" value="" style="endArrow=none;dashed=1;html=1;rounded=0;fillColor=#e3c800;strokeColor=#B09500;strokeWidth=2;" parent="1" edge="1">
          <mxGeometry width="50" height="50" relative="1" as="geometry">
            <mxPoint x="233" y="612" as="sourcePoint" />
            <mxPoint x="373" y="472" as="targetPoint" />
          </mxGeometry>
        </mxCell>
        <mxCell id="h0uYX_ybq1tScz9PB0_B-64" value="" style="endArrow=none;dashed=1;html=1;rounded=0;fillColor=#e3c800;strokeColor=#B09500;strokeWidth=2;" parent="1" edge="1">
          <mxGeometry width="50" height="50" relative="1" as="geometry">
            <mxPoint x="260" y="610" as="sourcePoint" />
            <mxPoint x="387" y="488" as="targetPoint" />
          </mxGeometry>
        </mxCell>
        <mxCell id="h0uYX_ybq1tScz9PB0_B-65" value="" style="endArrow=none;dashed=1;html=1;rounded=0;fillColor=#e3c800;strokeColor=#B09500;strokeWidth=2;" parent="1" edge="1">
          <mxGeometry width="50" height="50" relative="1" as="geometry">
            <mxPoint x="210" y="610" as="sourcePoint" />
            <mxPoint x="362" y="450" as="targetPoint" />
          </mxGeometry>
        </mxCell>
        <mxCell id="h0uYX_ybq1tScz9PB0_B-67" value="" style="curved=1;endArrow=classic;html=1;rounded=0;fillColor=#e3c800;strokeColor=#B09500;strokeWidth=4;" parent="1" edge="1">
          <mxGeometry width="50" height="50" relative="1" as="geometry">
            <mxPoint x="260" y="440" as="sourcePoint" />
            <mxPoint x="360" y="510" as="targetPoint" />
            <Array as="points">
              <mxPoint x="260" y="510" />
              <mxPoint x="330" y="540" />
            </Array>
          </mxGeometry>
        </mxCell>
        <mxCell id="h0uYX_ybq1tScz9PB0_B-68" value="&lt;font style=&quot;font-size: 20px;&quot; color=&quot;#999900&quot;&gt;Intensity&lt;/font&gt;" style="text;html=1;align=center;verticalAlign=middle;resizable=0;points=[];autosize=1;strokeColor=none;fillColor=none;" parent="1" vertex="1">
          <mxGeometry x="220" y="410" width="100" height="40" as="geometry" />
        </mxCell>
        <mxCell id="h0uYX_ybq1tScz9PB0_B-69" value="" style="ellipse;whiteSpace=wrap;html=1;strokeWidth=5;strokeColor=#C2C2C2;" parent="1" vertex="1">
          <mxGeometry x="342" y="150" width="20" height="20" as="geometry" />
        </mxCell>
        <mxCell id="h0uYX_ybq1tScz9PB0_B-70" value="" style="ellipse;whiteSpace=wrap;html=1;strokeWidth=5;strokeColor=#C2C2C2;" parent="1" vertex="1">
          <mxGeometry x="320" y="197" width="20" height="20" as="geometry" />
        </mxCell>
        <mxCell id="h0uYX_ybq1tScz9PB0_B-71" value="" style="ellipse;whiteSpace=wrap;html=1;strokeWidth=5;strokeColor=#C2C2C2;" parent="1" vertex="1">
          <mxGeometry x="530" y="157" width="20" height="20" as="geometry" />
        </mxCell>
        <mxCell id="h0uYX_ybq1tScz9PB0_B-72" value="" style="ellipse;whiteSpace=wrap;html=1;strokeWidth=5;strokeColor=#C2C2C2;" parent="1" vertex="1">
          <mxGeometry x="250" y="290" width="20" height="20" as="geometry" />
        </mxCell>
        <mxCell id="h0uYX_ybq1tScz9PB0_B-73" value="" style="ellipse;whiteSpace=wrap;html=1;strokeWidth=5;strokeColor=#C2C2C2;" parent="1" vertex="1">
          <mxGeometry x="280" y="247" width="20" height="20" as="geometry" />
        </mxCell>
        <mxCell id="h0uYX_ybq1tScz9PB0_B-74" value="" style="ellipse;whiteSpace=wrap;html=1;strokeWidth=5;strokeColor=#C2C2C2;" parent="1" vertex="1">
          <mxGeometry x="570" y="157" width="20" height="20" as="geometry" />
        </mxCell>
        <mxCell id="h0uYX_ybq1tScz9PB0_B-75" value="" style="ellipse;whiteSpace=wrap;html=1;strokeWidth=5;strokeColor=#C2C2C2;" parent="1" vertex="1">
          <mxGeometry x="680" y="310" width="20" height="20" as="geometry" />
        </mxCell>
        <mxCell id="h0uYX_ybq1tScz9PB0_B-76" value="" style="ellipse;whiteSpace=wrap;html=1;strokeWidth=5;strokeColor=#C2C2C2;" parent="1" vertex="1">
          <mxGeometry x="590" y="187" width="20" height="20" as="geometry" />
        </mxCell>
        <mxCell id="h0uYX_ybq1tScz9PB0_B-77" value="" style="ellipse;whiteSpace=wrap;html=1;strokeWidth=5;strokeColor=#C2C2C2;" parent="1" vertex="1">
          <mxGeometry x="630" y="247" width="20" height="20" as="geometry" />
        </mxCell>
        <mxCell id="h0uYX_ybq1tScz9PB0_B-78" value="" style="ellipse;whiteSpace=wrap;html=1;strokeWidth=5;strokeColor=#C2C2C2;" parent="1" vertex="1">
          <mxGeometry x="560" y="207" width="20" height="20" as="geometry" />
        </mxCell>
        <mxCell id="h0uYX_ybq1tScz9PB0_B-81" value="" style="ellipse;whiteSpace=wrap;html=1;strokeWidth=5;strokeColor=#C2C2C2;" parent="1" vertex="1">
          <mxGeometry x="470" y="60" width="20" height="20" as="geometry" />
        </mxCell>
        <mxCell id="h0uYX_ybq1tScz9PB0_B-79" value="" style="ellipse;whiteSpace=wrap;html=1;strokeWidth=5;strokeColor=#C2C2C2;" parent="1" vertex="1">
          <mxGeometry x="425" y="90" width="20" height="20" as="geometry" />
        </mxCell>
        <mxCell id="h0uYX_ybq1tScz9PB0_B-80" value="" style="ellipse;whiteSpace=wrap;html=1;strokeWidth=5;strokeColor=#C2C2C2;" parent="1" vertex="1">
          <mxGeometry x="360" y="110" width="20" height="20" as="geometry" />
        </mxCell>
        <mxCell id="h0uYX_ybq1tScz9PB0_B-82" value="" style="ellipse;whiteSpace=wrap;html=1;strokeWidth=5;strokeColor=#C2C2C2;" parent="1" vertex="1">
          <mxGeometry x="450" y="20" width="20" height="20" as="geometry" />
        </mxCell>
        <mxCell id="h0uYX_ybq1tScz9PB0_B-83" value="" style="ellipse;whiteSpace=wrap;html=1;strokeWidth=5;strokeColor=#C2C2C2;" parent="1" vertex="1">
          <mxGeometry x="410" y="40" width="20" height="20" as="geometry" />
        </mxCell>
        <mxCell id="h0uYX_ybq1tScz9PB0_B-92" value="" style="ellipse;whiteSpace=wrap;html=1;strokeWidth=5;strokeColor=#C2C2C2;" parent="1" vertex="1">
          <mxGeometry x="740" y="330" width="20" height="20" as="geometry" />
        </mxCell>
        <mxCell id="h0uYX_ybq1tScz9PB0_B-93" value="" style="ellipse;whiteSpace=wrap;html=1;strokeWidth=5;strokeColor=#C2C2C2;" parent="1" vertex="1">
          <mxGeometry x="510" y="80" width="20" height="20" as="geometry" />
        </mxCell>
        <mxCell id="h0uYX_ybq1tScz9PB0_B-94" value="" style="ellipse;whiteSpace=wrap;html=1;strokeWidth=5;strokeColor=#C2C2C2;" parent="1" vertex="1">
          <mxGeometry x="175" y="330" width="20" height="20" as="geometry" />
        </mxCell>
        <mxCell id="h0uYX_ybq1tScz9PB0_B-95" value="" style="ellipse;whiteSpace=wrap;html=1;strokeWidth=5;strokeColor=#C2C2C2;" parent="1" vertex="1">
          <mxGeometry x="300" y="280" width="20" height="20" as="geometry" />
        </mxCell>
        <mxCell id="h0uYX_ybq1tScz9PB0_B-96" value="" style="ellipse;whiteSpace=wrap;html=1;strokeWidth=5;strokeColor=#C2C2C2;" parent="1" vertex="1">
          <mxGeometry x="620" y="300" width="20" height="20" as="geometry" />
        </mxCell>
        <mxCell id="h0uYX_ybq1tScz9PB0_B-97" value="" style="ellipse;whiteSpace=wrap;html=1;strokeWidth=5;strokeColor=#C2C2C2;" parent="1" vertex="1">
          <mxGeometry x="580" y="240" width="20" height="20" as="geometry" />
        </mxCell>
        <mxCell id="h0uYX_ybq1tScz9PB0_B-98" value="" style="ellipse;whiteSpace=wrap;html=1;strokeWidth=5;strokeColor=#C2C2C2;" parent="1" vertex="1">
          <mxGeometry x="380" y="150" width="20" height="20" as="geometry" />
        </mxCell>
        <mxCell id="h0uYX_ybq1tScz9PB0_B-99" value="" style="ellipse;whiteSpace=wrap;html=1;strokeWidth=5;strokeColor=#C2C2C2;" parent="1" vertex="1">
          <mxGeometry x="360" y="187" width="20" height="20" as="geometry" />
        </mxCell>
        <mxCell id="h0uYX_ybq1tScz9PB0_B-100" value="" style="ellipse;whiteSpace=wrap;html=1;strokeWidth=5;strokeColor=#C2C2C2;" parent="1" vertex="1">
          <mxGeometry x="250" y="330" width="20" height="20" as="geometry" />
        </mxCell>
        <mxCell id="h0uYX_ybq1tScz9PB0_B-105" value="" style="curved=1;endArrow=classic;html=1;rounded=0;fillColor=#e51400;strokeColor=#FF0000;strokeWidth=4;exitX=0.299;exitY=0.016;exitDx=0;exitDy=0;exitPerimeter=0;" parent="1" source="h0uYX_ybq1tScz9PB0_B-41" edge="1">
          <mxGeometry width="50" height="50" relative="1" as="geometry">
            <mxPoint x="472.31999999999994" y="419.24" as="sourcePoint" />
            <mxPoint x="338" y="413" as="targetPoint" />
            <Array as="points">
              <mxPoint x="393" y="400" />
            </Array>
          </mxGeometry>
        </mxCell>
        <mxCell id="h0uYX_ybq1tScz9PB0_B-107" value="&lt;font style=&quot;font-size: 20px;&quot; color=&quot;#0000cc&quot;&gt;Onset timing&lt;/font&gt;" style="text;html=1;align=center;verticalAlign=middle;resizable=0;points=[];autosize=1;strokeColor=none;fillColor=none;" parent="1" vertex="1">
          <mxGeometry x="140" y="990" width="140" height="40" as="geometry" />
        </mxCell>
        <mxCell id="h0uYX_ybq1tScz9PB0_B-108" value="" style="endArrow=open;html=1;rounded=0;strokeWidth=2;endFill=0;fillColor=#008a00;strokeColor=#005700;" parent="1" edge="1">
          <mxGeometry width="50" height="50" relative="1" as="geometry">
            <mxPoint x="460" y="1000" as="sourcePoint" />
            <mxPoint x="459.40999999999997" y="70" as="targetPoint" />
          </mxGeometry>
        </mxCell>
        <mxCell id="h0uYX_ybq1tScz9PB0_B-109" value="&lt;font color=&quot;#006600&quot; style=&quot;font-size: 20px;&quot;&gt;Peak timing&lt;/font&gt;" style="text;html=1;align=center;verticalAlign=middle;resizable=0;points=[];autosize=1;strokeColor=none;fillColor=none;" parent="1" vertex="1">
          <mxGeometry x="395" y="990" width="130" height="40" as="geometry" />
        </mxCell>
        <mxCell id="h0uYX_ybq1tScz9PB0_B-110" value="" style="curved=1;endArrow=classic;html=1;rounded=0;fillColor=#e51400;strokeColor=#000000;strokeWidth=4;" parent="1" source="h0uYX_ybq1tScz9PB0_B-111" edge="1">
          <mxGeometry width="50" height="50" relative="1" as="geometry">
            <mxPoint x="665" y="88" as="sourcePoint" />
            <mxPoint x="527" y="117" as="targetPoint" />
            <Array as="points">
              <mxPoint x="582" y="104" />
            </Array>
          </mxGeometry>
        </mxCell>
        <mxCell id="h0uYX_ybq1tScz9PB0_B-111" value="&lt;span style=&quot;font-size: 20px;&quot;&gt;P-spline GAM (F(t))&lt;/span&gt;" style="text;html=1;align=center;verticalAlign=middle;resizable=0;points=[];autosize=1;strokeColor=none;fillColor=none;" parent="1" vertex="1">
          <mxGeometry x="610" y="40" width="200" height="40" as="geometry" />
        </mxCell>
        <mxCell id="h0uYX_ybq1tScz9PB0_B-112" value="" style="endArrow=open;html=1;rounded=0;strokeWidth=2;endFill=0;fillColor=#e51400;strokeColor=#FF0000;" parent="1" edge="1">
          <mxGeometry width="50" height="50" relative="1" as="geometry">
            <mxPoint x="338.82" y="417" as="sourcePoint" />
            <mxPoint x="339" y="220" as="targetPoint" />
          </mxGeometry>
        </mxCell>
        <mxCell id="h0uYX_ybq1tScz9PB0_B-114" value="&lt;font color=&quot;#ff0000&quot; style=&quot;font-size: 20px;&quot;&gt;Max growth&lt;/font&gt;" style="text;html=1;align=center;verticalAlign=middle;resizable=0;points=[];autosize=1;strokeColor=none;fillColor=none;" parent="1" vertex="1">
          <mxGeometry x="210" y="197" width="130" height="40" as="geometry" />
        </mxCell>
      </root>
    </mxGraphModel>
  </diagram>
</mxfile>
